<?xml version="1.0" encoding="utf-8" ?>
<svg baseProfile="full" height="300" version="1.1" width="200" xmlns="http://www.w3.org/2000/svg" xmlns:ev="http://www.w3.org/2001/xml-events" xmlns:xlink="http://www.w3.org/1999/xlink"><defs /><rect fill="white" height="300" width="200" x="0" y="0" /><line opacity="0.8" stroke="red" stroke-width="2" x1="0" x2="200" y1="0" y2="0" /><line opacity="0.8" stroke="red" stroke-width="2" x1="0" x2="200" y1="20" y2="20" /><line opacity="0.8" stroke="red" stroke-width="2" x1="0" x2="200" y1="40" y2="40" /><line opacity="0.8" stroke="red" stroke-width="2" x1="0" x2="200" y1="60" y2="60" /><line opacity="0.8" stroke="red" stroke-width="2" x1="0" x2="200" y1="80" y2="80" /><line opacity="0.8" stroke="red" stroke-width="2" x1="0" x2="200" y1="100" y2="100" /><line opacity="0.8" stroke="red" stroke-width="2" x1="0" x2="200" y1="120" y2="120" /><line opacity="0.8" stroke="red" stroke-width="2" x1="0" x2="200" y1="140" y2="140" /><line opacity="0.8" stroke="red" stroke-width="2" x1="0" x2="200" y1="160" y2="160" /><line opacity="0.8" stroke="red" stroke-width="2" x1="0" x2="200" y1="180" y2="180" /><line opacity="0.8" stroke="red" stroke-width="2" x1="0" x2="200" y1="200" y2="200" /><line opacity="0.8" stroke="red" stroke-width="2" x1="0" x2="200" y1="220" y2="220" /><line opacity="0.8" stroke="red" stroke-width="2" x1="0" x2="200" y1="240" y2="240" /><line opacity="0.8" stroke="red" stroke-width="2" x1="0" x2="200" y1="260" y2="260" /><line opacity="0.8" stroke="red" stroke-width="2" x1="0" x2="200" y1="280" y2="280" /><line opacity="0.8" stroke="black" stroke-width="2" x1="0" x2="0" y1="0" y2="300" /><line opacity="0.8" stroke="black" stroke-width="2" x1="20" x2="20" y1="0" y2="300" /><line opacity="0.8" stroke="black" stroke-width="2" x1="40" x2="40" y1="0" y2="300" /><line opacity="0.8" stroke="black" stroke-width="2" x1="60" x2="60" y1="0" y2="300" /><line opacity="0.8" stroke="black" stroke-width="2" x1="80" x2="80" y1="0" y2="300" /><line opacity="0.8" stroke="black" stroke-width="2" x1="100" x2="100" y1="0" y2="300" /><line opacity="0.8" stroke="black" stroke-width="2" x1="120" x2="120" y1="0" y2="300" /><line opacity="0.8" stroke="black" stroke-width="2" x1="140" x2="140" y1="0" y2="300" /><line opacity="0.8" stroke="black" stroke-width="2" x1="160" x2="160" y1="0" y2="300" /><line opacity="0.8" stroke="black" stroke-width="2" x1="180" x2="180" y1="0" y2="300" /></svg>